<?xml version="1.0" encoding="iso-8859-1"?>
<!-- Generator: Adobe Illustrator 22.0.1, SVG Export Plug-In . SVG Version: 6.00 Build 0)  -->
<svg version="1.1" id="Layer_1" xmlns="http://www.w3.org/2000/svg" xmlns:xlink="http://www.w3.org/1999/xlink" x="0px" y="0px"
	 viewBox="0 0 277.226 212.872" style="enable-background:new 0 0 277.226 212.872;" xml:space="preserve">
<path style="fill-rule:evenodd;clip-rule:evenodd;fill:#FFFFFF;" d="M148.617,125.01c-5.116,25.067-10.23,50.136-15.35,75.203
	c-0.267,1.304-0.532,2.611-0.869,3.897c-1.434,5.487-5.576,8.88-10.649,8.759c-5.124-0.121-9.206-3.598-10.362-9.172
	c-3.074-14.826-6.049-29.674-9.044-44.517c-6.087-30.175-12.159-60.353-18.256-90.526c-0.226-1.113-0.655-2.184-1.347-4.435
	c-4.317,20.257-8.389,39.356-12.459,58.457c-1.006,4.719-1.928,9.458-3.024,14.155c-1.29,5.526-4.887,8.807-10.56,8.871
	c-15.328,0.176-30.662,0.199-45.99-0.002C4.203,145.615-0.051,140.97,0,134.904c0.052-6.051,4.301-10.406,10.948-10.548
	c10.328-0.22,20.662-0.081,30.994-0.093c1.821-0.002,3.643,0,6.078,0c2.034-9.322,4.083-18.506,6.037-27.708
	c6.116-28.808,12.188-57.626,18.297-86.436c1.402-6.616,5.439-10.253,11.096-10.116c5.688,0.137,9.523,4.353,10.871,11.065
	c9.002,44.858,18.115,89.694,27.202,134.536c0.022,0.113,0.177,0.199,0.806,0.871c1.627-7.681,3.206-14.926,4.691-22.189
	c2.467-12.063,4.862-24.14,7.309-36.207c1.232-6.076,4.527-9.568,9.48-10.128c5.333-0.602,9.431,1.993,12.015,7.794
	c5.073,11.392,10.215,22.756,15.031,34.256c1.374,3.281,3.112,4.377,6.643,4.358c28.327-0.149,56.656-0.09,84.984-0.101
	c9.68-0.003,14.875,3.844,14.741,10.939c-0.131,6.936-5.113,10.593-14.595,10.597c-31.328,0.013-62.656-0.082-93.983,0.052
	c-6.663,0.029-11.104-2.412-13.504-8.757c-1.573-4.161-3.624-8.142-5.462-12.202C149.326,124.929,148.97,124.969,148.617,125.01z"/>
</svg>
