<?xml version="1.0" encoding="utf-8"?>
<!-- Generator: Adobe Illustrator 22.0.1, SVG Export Plug-In . SVG Version: 6.00 Build 0)  -->
<svg version="1.1" id="Layer_1" xmlns="http://www.w3.org/2000/svg" xmlns:xlink="http://www.w3.org/1999/xlink" x="0px" y="0px"
	 viewBox="0 0 277.2 212.9" style="enable-background:new 0 0 277.2 212.9;" xml:space="preserve">
<style type="text/css">
	.st0{fill:#F89513;}
</style>
<path class="st0" d="M148.6,125c-5.1,25.1-10.2,50.1-15.4,75.2c-0.3,1.3-0.5,2.6-0.9,3.9c-1.4,5.5-5.6,8.9-10.6,8.8
	c-5.1-0.1-9.2-3.6-10.4-9.2c-3.1-14.8-6-29.7-9-44.5C96.3,129,90.2,98.8,84.1,68.7c-0.2-1.1-0.7-2.2-1.3-4.4
	c-4.3,20.3-8.4,39.4-12.5,58.5c-1,4.7-1.9,9.5-3,14.2c-1.3,5.5-4.9,8.8-10.6,8.9c-15.3,0.2-30.7,0.2-46,0C4.2,145.6-0.1,141,0,134.9
	c0.1-6.1,4.3-10.4,10.9-10.5c10.3-0.2,20.7-0.1,31-0.1c1.8,0,3.6,0,6.1,0c2-9.3,4.1-18.5,6-27.7c6.1-28.8,12.2-57.6,18.3-86.4
	C73.8,3.5,77.8-0.1,83.5,0c5.7,0.1,9.5,4.4,10.9,11.1c9,44.9,18.1,89.7,27.2,134.5c0,0.1,0.2,0.2,0.8,0.9c1.6-7.7,3.2-14.9,4.7-22.2
	c2.5-12.1,4.9-24.1,7.3-36.2c1.2-6.1,4.5-9.6,9.5-10.1c5.3-0.6,9.4,2,12,7.8c5.1,11.4,10.2,22.8,15,34.3c1.4,3.3,3.1,4.4,6.6,4.4
	c28.3-0.1,56.7-0.1,85-0.1c9.7,0,14.9,3.8,14.7,10.9c-0.1,6.9-5.1,10.6-14.6,10.6c-31.3,0-62.7-0.1-94,0.1c-6.7,0-11.1-2.4-13.5-8.8
	c-1.6-4.2-3.6-8.1-5.5-12.2C149.3,124.9,149,125,148.6,125z"/>
</svg>
