<?xml version="1.0" encoding="iso-8859-1"?>
<!-- Generator: Adobe Illustrator 22.0.1, SVG Export Plug-In . SVG Version: 6.00 Build 0)  -->
<svg version="1.1" id="Layer_1" xmlns="http://www.w3.org/2000/svg" xmlns:xlink="http://www.w3.org/1999/xlink" x="0px" y="0px"
	 viewBox="0 0 422 306" style="enable-background:new 0 0 422 306;" xml:space="preserve">
<g>
	<path style="fill-rule:evenodd;clip-rule:evenodd;fill:#FFFFFF;" d="M418,194.521c-2.847,9.359-5.011,19.565-8.68,27.906
		c-7.892,17.938-24.068,25.925-36.324,19.442c-15.116-7.994-25.426-27.295-25.976-51.545c-0.587-25.941-0.918-52.055,0.21-77.899
		c0.974-22.308,9.244-37.927,21.488-46.589c12.157-8.598,23.693-5.393,34.531,6.983c8.077,9.225,11.492,23.37,14.75,37.786
		C418,138.577,418,166.551,418,194.521z"/>
	<path style="fill-rule:evenodd;clip-rule:evenodd;fill:#FFFFFF;" d="M2,110.606c2.852-9.355,5.037-19.531,8.692-27.898
		c7.804-17.862,23.987-25.846,36.319-19.391c15.104,7.908,25.366,27.255,25.959,51.539c0.6,24.547,0.745,49.206,0.056,73.734
		c-0.792,28.174-14.008,51.309-29.878,54.699c-17.493,3.74-33.01-11.98-38.978-39.463c-0.68-3.129-1.445-6.205-2.171-9.306
		C2,166.551,2,138.577,2,110.606z"/>
	<path style="fill-rule:evenodd;clip-rule:evenodd;fill:#FFFFFF;" d="M288.22,188.569c-51.655,0-102.586,0-154.188,0
		c-0.085,1.95-0.24,3.868-0.241,5.786c-0.016,23.493,0.08,46.987-0.039,70.481c-0.077,15.369-6.219,27.382-20.252,34.666
		c-20.689,10.736-47.673-3.23-50.733-26.283c-0.415-3.128-0.638-6.306-0.64-9.46c-0.033-74.314,0.018-148.627-0.059-222.94
		C62.054,26.006,67.23,14.047,80.423,6.616c22.59-12.723,53.226,1.67,53.342,33.146c0.087,23.492,0.015,46.986,0.015,70.48
		c-0.001,1.959,0,3.916,0,6.24c51.598,0,102.64,0,154.438,0c0-2.07,0-4.004,0-5.937c0.001-23.493-0.061-46.987,0.023-70.481
		c0.062-17.182,9.43-31.246,23.65-35.867c24.08-7.826,46.289,7.409,47.908,32.877c0.095,1.494,0.074,2.998,0.074,4.496
		c0.004,74.146-0.038,148.293,0.045,222.439c0.014,12.707-3.583,23.695-13.949,31.6c-11.335,8.643-24.007,9.992-36.76,4.176
		c-14.313-6.527-20.793-18.734-20.934-34.159c-0.213-23.491-0.056-46.987-0.056-70.48C288.22,193.167,288.22,191.188,288.22,188.569
		z"/>
</g>
</svg>
