<?xml version="1.0" standalone="no"?>
<!DOCTYPE svg PUBLIC "-//W3C//DTD SVG 20010904//EN"
 "http://www.w3.org/TR/2001/REC-SVG-20010904/DTD/svg10.dtd">
<svg version="1.0" xmlns="http://www.w3.org/2000/svg"
 width="700.000000pt" height="700.000000pt" viewBox="0 0 700.000000 700.000000"
 preserveAspectRatio="xMidYMid meet">
<metadata>
Created by potrace 1.11, written by Peter Selinger 2001-2013
</metadata>
<g transform="translate(0.000000,700.000000) scale(0.100000,-0.100000)"
fill="#000000" stroke="none">
<path d="M5140 6852 c-42 -4 -103 -22 -150 -45 -34 -16 -259 -235 -893 -868
-827 -826 -848 -846 -863 -825 -15 19 -86 129 -244 371 -35 55 -104 160 -152
234 -48 73 -88 134 -88 136 0 1 -33 53 -74 115 -82 125 -70 121 -116 37 -8
-15 -91 -164 -184 -330 -93 -166 -176 -313 -183 -327 -8 -14 -24 -43 -37 -65
-12 -22 -37 -67 -56 -100 -18 -33 -117 -211 -220 -395 -103 -184 -200 -357
-215 -385 -16 -27 -102 -183 -193 -345 -158 -283 -183 -328 -235 -422 -13 -24
-77 -137 -142 -253 -65 -115 -133 -237 -150 -270 -18 -33 -81 -145 -139 -249
-58 -104 -105 -191 -103 -192 2 -2 540 528 1270 1252 202 201 367 363 368 362
12 -51 7 -100 -14 -139 -44 -80 -60 -177 -45 -262 23 -123 22 -123 714 -814
599 -599 649 -646 712 -676 61 -29 76 -32 163 -32 89 0 100 2 165 35 60 30 78
34 120 30 l49 -5 -80 -82 c-44 -44 -404 -408 -800 -808 -834 -843 -748 -755
-742 -755 2 0 89 48 193 106 104 58 212 118 239 133 28 15 205 115 395 221
190 106 370 207 400 223 30 17 105 58 165 92 61 34 137 77 170 95 33 18 91 51
129 73 38 22 92 52 120 67 28 15 71 38 96 52 83 47 464 260 565 316 55 30 165
92 245 137 80 45 172 97 205 115 69 38 367 205 438 245 26 15 47 30 47 33 0 4
-21 20 -48 37 -26 16 -126 81 -222 143 -96 63 -236 154 -310 203 -74 48 -192
125 -263 171 -70 46 -127 88 -127 93 0 6 380 390 844 855 884 885 865 865 896
981 26 95 3 213 -58 302 -17 23 -314 327 -662 675 -560 559 -640 636 -696 663
-60 30 -148 47 -204 41z"/>
<path d="M2230 3008 c-28 -13 -57 -24 -145 -58 -251 -97 -830 -373 -843 -402
-2 -5 -8 -8 -13 -8 -32 0 -456 -275 -654 -423 -212 -160 -455 -348 -455 -354
0 -3 17 -3 37 1 58 9 96 16 123 21 14 3 36 7 50 10 37 6 200 34 235 40 37 7
324 64 351 70 10 2 39 9 64 16 25 6 52 12 60 14 8 2 51 13 95 25 44 12 87 23
95 25 8 2 37 11 65 19 27 8 50 14 52 12 2 -1 -26 -43 -61 -92 -115 -159 -257
-395 -351 -584 -59 -117 -245 -548 -245 -566 0 -7 519 219 581 253 19 11 72
39 119 64 104 53 328 193 424 264 39 28 83 60 99 70 l28 18 -12 -29 c-6 -16
-32 -114 -59 -219 -41 -160 -56 -226 -85 -365 -6 -28 -64 -355 -69 -390 -3
-19 -14 -81 -25 -137 -10 -57 -16 -103 -12 -103 3 0 15 13 26 29 28 41 138
185 146 191 16 13 285 380 356 485 134 200 178 272 297 490 136 247 223 432
355 762 l78 191 -336 336 c-185 185 -338 336 -341 335 -3 0 -16 -5 -30 -11z"/>
</g>
</svg>
